<svg xmlns="http://www.w3.org/2000/svg" width="31.509" height="39.493" viewBox="0 0 31.509 39.493"><defs><style>.a{fill:#fff;stroke:#fff;stroke-miterlimit:10;stroke-width:0.7px;}</style></defs><g transform="translate(-946.245 -976.376)"><path class="a" d="M24.986,21.875l3.879-6.747v.394a5.667,5.667,0,1,0,.618-2.53L24.7,21.313s-4.723-8.321-4.779-8.321a5.7,5.7,0,0,0-5-3.092,5.622,5.622,0,1,0,5.622,5.622v-.394l3.823,6.747L9.356,48.074a.3.3,0,0,0,.112.394.2.2,0,0,1,.112.056c.112,0,.169-.056.225-.169L24.648,22.437,39.491,48.524a.3.3,0,0,0,.225.169c.056,0,.112,0,.112-.056a.323.323,0,0,0,.112-.394Zm9.445-11.413a5.06,5.06,0,1,1-5.06,5.06A5.039,5.039,0,0,1,34.431,10.462ZM14.922,20.526a5.06,5.06,0,1,1,5.06-5.06A5.039,5.039,0,0,1,14.922,20.526Z" transform="translate(937.295 966.826)"/></g></svg>