<svg xmlns="http://www.w3.org/2000/svg" width="127.356" height="698.053" viewBox="0 0 127.356 698.053"><defs><style>.a{fill:#fff;}</style></defs><g transform="translate(-51.71 713.653) rotate(-90)"><g transform="translate(417.291 166.026)"><path class="a" d="M340.5,145.068a2.552,2.552,0,0,0-.38-1.393,3.413,3.413,0,0,0-1.013-.886,2.969,2.969,0,0,0-1.519-.253h-3.8v5.19h3.8a4.722,4.722,0,0,0,1.519-.253,3.413,3.413,0,0,0,1.013-.886,2.284,2.284,0,0,0,.38-1.519m-.127-5.95a2.552,2.552,0,0,0-.38-1.393,3.413,3.413,0,0,0-1.013-.886,4.551,4.551,0,0,0-1.393-.253h-3.671v4.937h3.671a3.221,3.221,0,0,0,2.026-.633,2.124,2.124,0,0,0,.76-1.772m1.139,5.95A3.141,3.141,0,0,1,340.5,147.6a3.885,3.885,0,0,1-2.785.886H332.9V135.7h4.684a4.228,4.228,0,0,1,1.9.38,2.771,2.771,0,0,1,1.266,1.139,4.121,4.121,0,0,1,.506,1.772,2.906,2.906,0,0,1-.506,1.772,3.456,3.456,0,0,1-1.519,1.139,3.215,3.215,0,0,1,1.646,1.139,2.978,2.978,0,0,1,.633,2.026" transform="translate(-332.9 -135.573)"/><path class="a" d="M355.309,135.7l-3.8,7.469v5.317H350.5v-5.317l-3.8-7.469h1.013L351,142.156l3.165-6.456Z" transform="translate(-329.23 -135.573)"/><path class="a" d="M377.922,136.586h-6.836V141.9h5.823v.76h-5.823v5.823H370.2V135.7h7.722Z" transform="translate(-322.979 -135.573)"/><path class="a" d="M390.549,144.562l-2.659-7.6-2.659,7.6Zm2.405,3.925h-1.013l-1.139-3.165h-5.95l-1.139,3.165H382.7l4.684-12.786h.886Z" transform="translate(-319.655 -135.573)"/><path class="a" d="M405.9,145.068a2.552,2.552,0,0,0-.38-1.393,3.414,3.414,0,0,0-1.013-.886,2.742,2.742,0,0,0-1.519-.253h-3.8v5.19h3.8a4.722,4.722,0,0,0,1.519-.253,3.412,3.412,0,0,0,1.013-.886,3.371,3.371,0,0,0,.38-1.519m-.127-5.95a2.552,2.552,0,0,0-.38-1.393,3.412,3.412,0,0,0-1.013-.886,4.551,4.551,0,0,0-1.393-.253h-3.671v4.937h3.671a3.222,3.222,0,0,0,2.026-.633,2.124,2.124,0,0,0,.76-1.772m1.139,5.95A3.142,3.142,0,0,1,405.9,147.6a3.886,3.886,0,0,1-2.785.886H398.3V135.7h4.684a4.227,4.227,0,0,1,1.9.38,2.771,2.771,0,0,1,1.266,1.139,4.12,4.12,0,0,1,.506,1.772,2.907,2.907,0,0,1-.506,1.772,3.456,3.456,0,0,1-1.519,1.139,3.215,3.215,0,0,1,1.646,1.139,2.978,2.978,0,0,1,.633,2.026" transform="translate(-315.506 -135.573)"/><rect class="a" width="1.013" height="12.786" transform="translate(102.037 0.127)"/><path class="a" d="M430.949,148.486H423.1V135.7h7.849v.886h-6.836v5.064h5.823v.886h-5.823v5.19h6.836Z" transform="translate(-308.91 -135.573)"/><path class="a" d="M446.668,148.486h-1.013l-7.343-11.141v11.141H437.3V135.7h1.013l7.343,11.14V135.7h1.013Z" transform="translate(-305.133 -135.573)"/><path class="a" d="M462.868,148.486h-1.013l-7.343-11.141v11.141H453.5V135.7h1.013l7.343,11.14V135.7h1.013Z" transform="translate(-300.825 -135.573)"/><path class="a" d="M477.422,148.486H469.7V135.7h7.722v.886h-6.71v5.064h5.7v.886h-5.7v5.19h6.71Z" transform="translate(-296.516 -135.573)"/><path class="a" d="M500.909,145.042a4.551,4.551,0,0,1-.253,1.393,6.958,6.958,0,0,1-.886,1.139,13.813,13.813,0,0,1-1.393.76,7.471,7.471,0,0,1-1.772.253,6.688,6.688,0,0,1-1.646-.127,4.537,4.537,0,0,1-1.393-.506,8.869,8.869,0,0,1-1.266-1.013l.633-.633a6.958,6.958,0,0,0,1.139.886,4.5,4.5,0,0,0,1.139.506,4.747,4.747,0,0,0,1.393.127,7.473,7.473,0,0,0,1.772-.253,2.757,2.757,0,0,0,1.139-.886,2.552,2.552,0,0,0,.38-1.393,2.124,2.124,0,0,0-.76-1.772c-.253-.127-.506-.38-.76-.38a8.066,8.066,0,0,0-1.139-.253l-1.519-.253a4.766,4.766,0,0,1-2.279-.886,3.047,3.047,0,0,1-1.013-2.405,6.356,6.356,0,0,1,.253-1.519l.76-1.139a3.961,3.961,0,0,1,1.266-.633,6.413,6.413,0,0,1,1.646-.253,5.248,5.248,0,0,1,2.026.38,11.555,11.555,0,0,1,1.646,1.013l-.633.633a4.275,4.275,0,0,0-1.393-.886,3.754,3.754,0,0,0-1.772-.253,2.978,2.978,0,0,0-2.152.76,2.576,2.576,0,0,0-.76,1.9,2.187,2.187,0,0,0,.633,1.646,2.04,2.04,0,0,0,.886.506,3.914,3.914,0,0,0,1.013.253l1.393.253a8.263,8.263,0,0,0,1.393.253,2.041,2.041,0,0,1,.886.506,2.758,2.758,0,0,1,.886,1.139c.506.253.506.633.506,1.139" transform="translate(-290.505 -135.547)"/><rect class="a" width="1.013" height="12.786" transform="translate(220.658 0.127)"/><path class="a" d="M524.649,141.93v-.506a12.309,12.309,0,0,0-.127-2.279,2.887,2.887,0,0,0-.76-1.519,3.731,3.731,0,0,0-2.785-1.013h-3.038v11.14h3.038a3.941,3.941,0,0,0,2.785-1.013,3.314,3.314,0,0,0,.76-1.646,15.348,15.348,0,0,0,.127-2.532Zm.886,0v.38a17.772,17.772,0,0,1-.253,2.912,3.441,3.441,0,0,1-1.013,2.026,2.272,2.272,0,0,1-.886.633c-.38.127-.633.253-1.013.38a3.9,3.9,0,0,1-1.266.127h-4.3V135.6h4.3a3.9,3.9,0,0,1,1.266.127,8.727,8.727,0,0,1,1.013.38,2.272,2.272,0,0,1,.886.633,3.483,3.483,0,0,1,1.013,1.9,16.128,16.128,0,0,1,.253,2.785Z" transform="translate(-283.989 -135.6)"/><path class="a" d="M539.922,148.486H532.2V135.7h.886v12.027h6.836Z" transform="translate(-279.893 -135.573)"/><path class="a" d="M553.722,148.486H546V135.7h7.722v.886h-6.836v5.064h5.823v.886h-5.823v5.19h6.836Z" transform="translate(-276.223 -135.573)"/><path class="a" d="M567.822,139.118a2.222,2.222,0,0,0-.76-1.9,3.222,3.222,0,0,0-2.026-.633h-3.8v5.19h3.8a3.5,3.5,0,0,0,1.139-.127,2.04,2.04,0,0,0,.886-.506c.253-.253.38-.506.633-.76,0-.38.126-.76.126-1.266m1.013,9.368H567.7l-3.038-5.95h-3.545v5.95H560.1V135.7h4.937a4.228,4.228,0,0,1,1.9.38,2.771,2.771,0,0,1,1.266,1.139,4.194,4.194,0,0,1,.506,1.9,3.535,3.535,0,0,1-.76,2.279,3.276,3.276,0,0,1-2.152,1.139Z" transform="translate(-272.473 -135.573)"/></g><path class="a" d="M115.231,120.752c-1.9,0-1.646,1.646-2.912,1.646l-8.862,4.431c-2.279,3.545-20.255,6.077-24.813,6.077H77c-3.165-1.646-6.963.38-9.875-2.532-2.532-.633-5.064-1.9-5.7-4.431-3.545-.38-1.013-4.178-4.178-4.431-3.8-3.545-2.532-9.242-5.7-12.66-3.8,1.266-6.077,10.128-10.128,11.394-.38,2.912-4.178,5.064-6.33,6.71-2.532,1.9-5.7,1.9-8.609,3.165-1.646-1.266-5.064,0-5.064-3.165-4.178-1.266-2.532-5.064-3.8-7.976,0-3.545-1.013-6.71-.253-10.128a4.817,4.817,0,0,1-.38-2.279c0-4.178,1.013-7.976,1.013-12.027A6.806,6.806,0,0,0,16.993,91c.633-2.279.633-4.178,1.266-6.33-1.013-8.229-.633-16.458-.633-24.813,0-1.646,0-3.165-1.013-4.431,0-1.9-1.013-3.545-1.013-5.064,0-4.178,5.444-2.279,6.71-5.064,1.646,1.266,3.545.633,5.064.633a71.64,71.64,0,0,1,2.279,16.458c0,3.165-.38,6.33-.38,9.495-1.646.38-.633,5.064-.633,6.71,0,3.165-1.013,6.71-1.013,9.875,0,1.9.633,3.545.633,5.444a4.9,4.9,0,0,1-.633,2.912c1.266,3.545.633,7.343.633,10.761,0,2.532,1.013,4.811,1.266,6.963,1.266,1.013.633,4.178,2.532,4.178a2.775,2.775,0,0,1,1.013-.38c6.963-7.976,9.875-18.1,16.2-26.332,3.165-1.646,2.279-6.077,4.811-7.6,2.279-1.266,7.6-3.8,10.128-3.8a8.266,8.266,0,0,1,2.532.633c-.38,1.9,0,12.027-1.266,12.66,2.279,7.976.38,17.47,6.71,24.18l-.253.633c0,1.013,1.266,1.266,1.9,1.646,2.912,4.178,8.609,4.811,13.293,4.811,12.027,0,21.648-7.343,28.231-7.343A1.529,1.529,0,0,1,117,119.486c.127,1.266-.886.633-1.772,1.266" transform="translate(0 6.41)"/><path class="a" d="M127.217,94.143c-4.431-1.9-6.077-8.609-8.229-8.609-3.545,0-8.609,14.559-8.609,18.736,0,2.532.633,4.811,2.532,6.33.38,0,1.013.253,1.266.253a9.432,9.432,0,0,0,4.811-1.9,37.793,37.793,0,0,1,6.963-8.609c.38-1.646,1.9-3.165,1.9-4.811a2.308,2.308,0,0,0-.633-1.393m61.02,13.926c-10.508,5.444-20.635,11.14-32.662,11.14-5.7,0-10.761-2.279-15.571-5.444-2.279-3.165-5.064-5.064-8.229-7.343-2.912,1.9-4.811,5.064-8.229,6.33-1.646,2.279-12.66,6.33-15.571,6.33A13.385,13.385,0,0,1,100,116.8a15.115,15.115,0,0,1-1.9-7.343c0-6.963,4.431-13.039,6.963-19.369,3.545-8.862,9.242-11.14,17.091-15.192H123.8c5.064,0,10.128,2.532,12.406,6.963a4.921,4.921,0,0,0,1.9.253c2.912,0,5.444-3.165,7.6-3.165,1.646,0,2.279,1.266,2.912,2.532-1.266,3.545-4.178,5.064-4.178,9.495,0,3.165,2.279,5.7,2.279,8.609,5.7,5.7,7.6,12.406,17.091,12.406,7.976,0,16.458-4.431,23.8-6.963,2.279-3.165,6.71-2.912,9.495-5.7,1.013,0,1.266,0,1.266,1.013,0,3.671-7.6,6.456-10.128,7.722" transform="translate(21.942 14.282)"/><path class="a" d="M208.217,94.143c-4.431-1.9-6.077-8.609-8.229-8.609-3.545,0-8.609,14.559-8.609,18.736,0,2.532.633,4.811,2.532,6.33.38,0,1.013.253,1.266.253a9.432,9.432,0,0,0,4.811-1.9,37.793,37.793,0,0,1,6.963-8.609c.38-1.646,1.9-3.165,1.9-4.811a2.308,2.308,0,0,0-.633-1.393m61.02,13.926c-10.508,5.444-20.635,11.14-32.662,11.14-5.7,0-10.761-2.279-15.571-5.444-2.279-3.165-5.064-5.064-8.229-7.343-2.912,1.9-4.811,5.064-8.229,6.33-1.646,2.279-12.66,6.33-15.571,6.33A13.385,13.385,0,0,1,181,116.8a15.115,15.115,0,0,1-1.9-7.343c0-6.963,4.431-13.039,6.963-19.369,3.545-8.862,9.242-11.14,17.091-15.192H204.8c5.064,0,10.128,2.532,12.406,6.963a4.921,4.921,0,0,0,1.9.253c2.912,0,5.444-3.165,7.6-3.165,1.646,0,2.279,1.266,2.912,2.532-1.266,3.545-4.178,5.064-4.178,9.495,0,3.165,2.279,5.7,2.279,8.609,5.7,5.7,7.6,12.406,17.091,12.406,7.976,0,16.458-4.431,23.8-6.963,2.279-3.165,6.71-2.912,9.495-5.7,1.013,0,1.266,0,1.266,1.013,0,3.671-7.6,6.456-10.128,7.722" transform="translate(43.485 14.282)"/><path class="a" d="M347.357,77.917c-3.545,2.912-9.242,3.165-13.672,4.811-10.761,4.178-22.281,4.811-33.675,6.33-6.077,1.013-12.027.633-17.724,2.532a7.539,7.539,0,0,0-.633,3.8c0,2.279.253,4.178.253,6.33,0,4.178-1.646,10.761-2.912,14.559-1.9,0-1.9,1.9-2.279,3.165-2.912,1.9-5.7,4.178-9.242,4.178-5.444,0-3.8-4.811-3.8-8.229,0-2.532-1.266-5.064-1.646-7.6-1.013-6.33-1.013-13.039-1.266-19.369-1.9-1.646-1.266-5.064-3.165-6.963.633-2.279,8.609-6.33,10.761-6.33,1.266,1.266,2.912,5.444,4.811,5.444a3.209,3.209,0,0,0,2.279-1.266c4.431.38,8.608,2.532,13.039,2.532,8.609,0,17.091-.633,25.7-1.266,11.773-1.013,23.167-4.811,34.941-6.077,1.013-1.9,4.178-.633,5.7-1.9a3.068,3.068,0,0,1,2.532,1.646c-1.772,3.418-6.456,4.051-10,3.671" transform="translate(64.364 13.671)"/><path class="a" d="M438.717,94.143c-4.431-1.9-6.077-8.609-8.229-8.609-3.545,0-8.608,14.559-8.608,18.736,0,2.532.633,4.811,2.532,6.33.253,0,1.013.253,1.266.253a9.432,9.432,0,0,0,4.811-1.9,37.793,37.793,0,0,1,6.963-8.609c.38-1.646,1.9-3.165,1.9-4.811a2.308,2.308,0,0,0-.633-1.393m61.02,13.926c-10.508,5.444-20.635,11.14-32.662,11.14-5.7,0-10.761-2.279-15.571-5.444-2.279-3.165-5.064-5.064-8.229-7.343-2.912,1.9-4.811,5.064-8.229,6.33-1.646,2.279-12.66,6.33-15.571,6.33A13.385,13.385,0,0,1,411.5,116.8a15.115,15.115,0,0,1-1.9-7.343c0-6.963,4.431-13.039,6.963-19.369,3.545-8.862,9.242-11.14,17.091-15.192H435.3c5.064,0,10.128,2.532,12.406,6.963a4.921,4.921,0,0,0,1.9.253c2.912,0,5.444-3.165,7.6-3.165,1.646,0,2.279,1.266,2.912,2.532-1.266,3.545-4.178,5.064-4.178,9.495,0,3.165,2.279,5.7,2.279,8.609,5.7,5.7,7.6,12.406,17.091,12.406,7.976,0,16.458-4.431,23.8-6.963,2.279-3.165,6.71-2.912,9.495-5.7,1.013,0,1.266,0,1.266,1.013,0,3.671-7.6,6.456-10.128,7.722" transform="translate(104.79 14.282)"/><path class="a" d="M577.857,77.917c-3.545,2.912-9.242,3.165-13.672,4.811-10.761,4.178-22.281,4.811-33.675,6.33-6.077,1.013-12.027.633-17.724,2.532a7.539,7.539,0,0,0-.633,3.8c0,2.279.253,4.178.253,6.33,0,4.178-1.646,10.761-2.912,14.559-1.9,0-1.9,1.9-2.279,3.165-2.912,1.9-5.7,4.178-9.242,4.178-5.444,0-3.8-4.811-3.8-8.229,0-2.532-1.266-5.064-1.646-7.6-1.013-6.33-1.013-13.039-1.266-19.369-1.9-1.646-1.266-5.064-3.165-6.963.633-2.279,8.608-6.33,10.761-6.33,1.266,1.266,2.912,5.444,4.811,5.444a3.208,3.208,0,0,0,2.279-1.266c4.431.38,8.609,2.532,13.039,2.532,8.609,0,17.091-.633,25.7-1.266,11.774-1.013,23.167-4.811,34.941-6.077,1.013-1.9,4.178-.633,5.7-1.9a3.068,3.068,0,0,1,2.532,1.646c-1.772,3.418-6.456,4.051-10,3.671" transform="translate(125.669 13.671)"/></g></svg>