<svg xmlns="http://www.w3.org/2000/svg" xmlns:xlink="http://www.w3.org/1999/xlink" width="397.107" height="55.1" viewBox="0 0 397.107 55.1"><defs><style>.a{fill:#6c6530;}.b{clip-path:url(#a);}.c,.d{fill:#fff;}.d{font-size:30px;font-family:MrEavesModOT-Reg, Mr Eaves Mod OT;letter-spacing:0.03em;}</style><clipPath id="a"><path class="a" d="M0,0H262.107V-55.016H0Z"/></clipPath></defs><g transform="translate(135 55.1)"><g class="b"><g transform="translate(256.567 -40.249)"><path class="a" d="M0,0-5.466,5.471a20.076,20.076,0,0,1,1.351,7.272A20.283,20.283,0,0,1-24.374,33a20.123,20.123,0,0,1-7.277-1.351,20.348,20.348,0,0,1-8.137-5.771,20.151,20.151,0,0,1-4.85-13.137A20.285,20.285,0,0,1-24.374-7.521,20.171,20.171,0,0,1-11.335-2.754L-6.2-7.9a27.384,27.384,0,0,0-18.178-6.868H-256.567V40.249H-24.374A27.447,27.447,0,0,0-4.922,32.195,27.436,27.436,0,0,0,3.131,12.743,27.29,27.29,0,0,0,0,0"/></g><g transform="translate(261.614 -47.961)"><path class="c" d="M0,0-29.162,29.167a1.685,1.685,0,0,1-2.381,0l-1.232-1.237a1.671,1.671,0,0,1-.284-.228l-7.112-7.112a1.685,1.685,0,0,1,0-2.381l2-2a1.685,1.685,0,0,1,2.381,0l5.414,5.414,25.994-26A1.685,1.685,0,0,1-2-4.379l2,2A1.685,1.685,0,0,1,0,0"/></g></g></g><rect class="a" width="163" height="55"/><text class="d" transform="translate(174 36.1)"><tspan x="-156.855" y="0">CORONA-MASSNAHMEN</tspan></text></svg>